<?xml version="1.0" encoding="UTF-8"?>
<!DOCTYPE svg PUBLIC "-//W3C//DTD SVG 1.1//EN" "http://www.w3.org/Graphics/SVG/1.1/DTD/svg11.dtd">
<svg xmlns="http://www.w3.org/2000/svg" version="1.1" width="500px" height="500px" style="shape-rendering:geometricPrecision; text-rendering:geometricPrecision; image-rendering:optimizeQuality; fill-rule:evenodd; clip-rule:evenodd" xmlns:xlink="http://www.w3.org/1999/xlink">
<g><path style="opacity:0.373" fill="#dfefa0" d="M 483.5,-0.5 C 484.833,-0.5 486.167,-0.5 487.5,-0.5C 486.833,0.166667 486.167,0.833333 485.5,1.5C 478.857,2.38489 472.19,3.05156 465.5,3.5C 471.458,1.95175 477.458,0.618416 483.5,-0.5 Z"/></g>
<g><path style="opacity:0.008" fill="#fefffe" d="M 426.5,2.5 C 427.833,3.16667 427.833,3.16667 426.5,2.5 Z"/></g>
<g><path style="opacity:1" fill="#91c300" d="M 230.5,39.5 C 244.188,37.379 257.855,35.379 271.5,33.5C 277.925,33.0402 284.258,32.0402 290.5,30.5C 296.509,30.6662 302.509,30.4995 308.5,30C 318.552,27.0915 328.719,25.9248 339,26.5C 351.098,23.706 363.265,21.206 375.5,19C 379.833,18.6667 384.167,18.3333 388.5,18C 392.459,17.2366 396.126,16.0699 399.5,14.5C 405.52,13.6371 411.52,13.6371 417.5,14.5C 425.841,12.678 434.341,11.3447 443,10.5C 446.2,12.0946 449.7,12.4279 453.5,11.5C 453.561,9.40784 454.561,7.90784 456.5,7C 464.585,6.76184 472.585,5.92851 480.5,4.5C 482.5,4.83333 484.5,5.16667 486.5,5.5C 488.54,7.74416 490.206,10.2442 491.5,13C 491.82,85.6989 491.486,158.532 490.5,231.5C 482.809,231.692 475.142,231.358 467.5,230.5C 465.366,230.515 463.366,231.015 461.5,232C 464.167,232.333 466.833,232.667 469.5,233C 454.306,233.513 439.139,233.013 424,231.5C 418.453,231.526 412.953,232.026 407.5,233C 348.171,234.047 288.838,234.547 229.5,234.5C 230.491,169.423 230.825,104.423 230.5,39.5 Z"/></g>
<g><path style="opacity:0.447" fill="#cde188" d="M 464.5,3.5 C 464.082,4.22158 463.416,4.72158 462.5,5C 452.207,6.58972 441.874,7.75639 431.5,8.5C 442.282,6.27376 453.282,4.60709 464.5,3.5 Z"/></g>
<g><path style="opacity:0.729" fill="#cde185" d="M 431.5,8.5 C 430.737,9.26791 429.737,9.76791 428.5,10C 422.523,10.8309 416.523,11.3309 410.5,11.5C 417.276,9.86523 424.276,8.86523 431.5,8.5 Z"/></g>
<g><path style="opacity:0.008" fill="#fefffe" d="M 369.5,10.5 C 370.833,11.1667 370.833,11.1667 369.5,10.5 Z"/></g>
<g><path style="opacity:0.769" fill="#c6dc77" d="M 409.5,11.5 C 406.22,12.7121 402.887,13.7121 399.5,14.5C 393.87,15.2919 388.203,15.6252 382.5,15.5C 391.287,13.625 400.287,12.2917 409.5,11.5 Z"/></g>
<g><path style="opacity:0.643" fill="#d0e089" d="M 381.5,15.5 C 375.835,17.7625 369.835,18.7625 363.5,18.5C 369.28,16.9569 375.28,15.9569 381.5,15.5 Z"/></g>
<g><path style="opacity:0.008" fill="#fefffe" d="M 297.5,19.5 C 298.833,20.1667 298.833,20.1667 297.5,19.5 Z"/></g>
<g><path style="opacity:0.482" fill="#cde288" d="M 362.5,18.5 C 354.122,20.8412 345.455,22.1746 336.5,22.5C 344.937,20.5313 353.604,19.198 362.5,18.5 Z"/></g>
<g><path style="opacity:1" fill="#96bd20" d="M 399.5,14.5 C 396.126,16.0699 392.459,17.2366 388.5,18C 384.167,18.3333 379.833,18.6667 375.5,19C 363.265,21.206 351.098,23.706 339,26.5C 328.719,25.9248 318.552,27.0915 308.5,30C 302.509,30.4995 296.509,30.6662 290.5,30.5C 294.142,29.3934 297.809,28.3934 301.5,27.5C 313.43,26.9751 325.097,25.3084 336.5,22.5C 345.455,22.1746 354.122,20.8412 362.5,18.5C 362.833,18.5 363.167,18.5 363.5,18.5C 369.835,18.7625 375.835,17.7625 381.5,15.5C 381.833,15.5 382.167,15.5 382.5,15.5C 388.203,15.6252 393.87,15.2919 399.5,14.5 Z"/></g>
<g><path style="opacity:0.808" fill="#c3d975" d="M 336.5,22.5 C 325.097,25.3084 313.43,26.9751 301.5,27.5C 312.918,25.0117 324.584,23.3451 336.5,22.5 Z"/></g>
<g><path style="opacity:0.941" fill="#c0d76f" d="M 301.5,27.5 C 297.809,28.3934 294.142,29.3934 290.5,30.5C 284.258,32.0402 277.925,33.0402 271.5,33.5C 262.82,34.0017 254.153,34.6684 245.5,35.5C 263.945,32.1984 282.611,29.5317 301.5,27.5 Z"/></g>
<g><path style="opacity:1" fill="#93be13" d="M 271.5,235.5 C 257.167,235.5 242.833,235.5 228.5,235.5C 227.837,169.825 228.503,104.491 230.5,39.5C 230.825,104.423 230.491,169.423 229.5,234.5C 288.838,234.547 348.171,234.047 407.5,233C 412.953,232.026 418.453,231.526 424,231.5C 439.139,233.013 454.306,233.513 469.5,233C 466.833,232.667 464.167,232.333 461.5,232C 463.366,231.015 465.366,230.515 467.5,230.5C 475.142,231.358 482.809,231.692 490.5,231.5C 491.486,158.532 491.82,85.6989 491.5,13C 490.206,10.2442 488.54,7.74416 486.5,5.5C 484.5,5.16667 482.5,4.83333 480.5,4.5C 472.585,5.92851 464.585,6.76184 456.5,7C 454.561,7.90784 453.561,9.40784 453.5,11.5C 449.7,12.4279 446.2,12.0946 443,10.5C 434.341,11.3447 425.841,12.678 417.5,14.5C 411.52,13.6371 405.52,13.6371 399.5,14.5C 402.887,13.7121 406.22,12.7121 409.5,11.5C 409.833,11.5 410.167,11.5 410.5,11.5C 416.523,11.3309 422.523,10.8309 428.5,10C 429.737,9.76791 430.737,9.26791 431.5,8.5C 441.874,7.75639 452.207,6.58972 462.5,5C 463.416,4.72158 464.082,4.22158 464.5,3.5C 464.833,3.5 465.167,3.5 465.5,3.5C 472.19,3.05156 478.857,2.38489 485.5,1.5C 488.417,0.708889 491.25,0.708889 494,1.5C 494.5,79.166 494.667,156.833 494.5,234.5C 420.165,234.547 345.832,234.88 271.5,235.5 Z"/></g>
<g><path style="opacity:0.565" fill="#d2e690" d="M 243.5,35.5 C 238.518,37.7388 233.184,38.7388 227.5,38.5C 232.57,36.7703 237.903,35.7703 243.5,35.5 Z"/></g>
<g><path style="opacity:0.004" fill="#fefffe" d="M 101.5,39.5 C 102.833,40.1667 102.833,40.1667 101.5,39.5 Z"/></g>
<g><path style="opacity:0.004" fill="#fefffe" d="M 139.5,45.5 C 140.833,46.1667 140.833,46.1667 139.5,45.5 Z"/></g>
<g><path style="opacity:1" fill="#f7682c" d="M -0.5,236.5 C -0.5,181.167 -0.5,125.833 -0.5,70.5C 7.71851,70.4225 15.8852,69.7559 24,68.5C 27.8475,68.6787 31.6808,69.012 35.5,69.5C 38.9256,69.1976 42.0922,68.1976 45,66.5C 46.8122,66.4934 48.3122,67.16 49.5,68.5C 51.1667,67.1667 52.8333,67.1667 54.5,68.5C 56.2686,66.3943 58.4353,64.7276 61,63.5C 67.3955,62.6346 73.5622,61.3013 79.5,59.5C 80.1667,59.5 80.8333,59.5 81.5,59.5C 91.4245,59.0816 101.091,57.7483 110.5,55.5C 110.833,55.5 111.167,55.5 111.5,55.5C 128.81,53.8175 146.144,52.3175 163.5,51C 167.648,49.6304 171.648,48.1304 175.5,46.5C 178.833,46.5 182.167,46.5 185.5,46.5C 190.5,45.8333 195.5,45.1667 200.5,44.5C 200.5,108.5 200.5,172.5 200.5,236.5C 133.5,236.5 66.5,236.5 -0.5,236.5 Z"/></g>
<g><path style="opacity:0.302" fill="#f7c6aa" d="M 159.5,47.5 C 153.132,49.6013 146.465,50.6013 139.5,50.5C 145.962,49.0223 152.628,48.0223 159.5,47.5 Z"/></g>
<g><path style="opacity:0.427" fill="#f1bda6" d="M 139.5,50.5 C 135.119,52.2105 130.453,52.8772 125.5,52.5C 129.943,51.1985 134.609,50.5319 139.5,50.5 Z"/></g>
<g><path style="opacity:0.918" fill="#e37a4e" d="M 169.5,46.5 C 171.5,46.5 173.5,46.5 175.5,46.5C 171.648,48.1304 167.648,49.6304 163.5,51C 146.144,52.3175 128.81,53.8175 111.5,55.5C 116.196,54.6625 120.863,53.6625 125.5,52.5C 130.453,52.8772 135.119,52.2105 139.5,50.5C 146.465,50.6013 153.132,49.6013 159.5,47.5C 162.728,46.5863 166.061,46.2529 169.5,46.5 Z"/></g>
<g><path style="opacity:0.318" fill="#f6c8a7" d="M 125.5,52.5 C 120.863,53.6625 116.196,54.6625 111.5,55.5C 111.167,55.5 110.833,55.5 110.5,55.5C 100.598,56.1109 90.9318,57.4443 81.5,59.5C 80.8333,59.5 80.1667,59.5 79.5,59.5C 77.5,59.5 75.5,59.5 73.5,59.5C 90.5913,56.3623 107.925,54.029 125.5,52.5 Z"/></g>
<g><path style="opacity:0.937" fill="#db7c4f" d="M 110.5,55.5 C 101.091,57.7483 91.4245,59.0816 81.5,59.5C 90.9318,57.4443 100.598,56.1109 110.5,55.5 Z"/></g>
<g><path style="opacity:0.004" fill="#fefffe" d="M 208.5,59.5 C 209.833,60.1667 209.833,60.1667 208.5,59.5 Z"/></g>
<g><path style="opacity:0.008" fill="#fefffe" d="M 12.5,63.5 C 13.8333,64.1667 13.8333,64.1667 12.5,63.5 Z"/></g>
<g><path style="opacity:0.541" fill="#f2bd9e" d="M 71.5,59.5 C 52.5201,63.7346 33.1868,66.4013 13.5,67.5C 32.6352,64.3861 51.9685,61.7194 71.5,59.5 Z"/></g>
<g><path style="opacity:1" fill="#e8703d" d="M 71.5,59.5 C 72.1667,59.5 72.8333,59.5 73.5,59.5C 75.5,59.5 77.5,59.5 79.5,59.5C 73.5622,61.3013 67.3955,62.6346 61,63.5C 58.4353,64.7276 56.2686,66.3943 54.5,68.5C 52.8333,67.1667 51.1667,67.1667 49.5,68.5C 48.3122,67.16 46.8122,66.4934 45,66.5C 42.0922,68.1976 38.9256,69.1976 35.5,69.5C 31.6808,69.012 27.8475,68.6787 24,68.5C 15.8852,69.7559 7.71851,70.4225 -0.5,70.5C -0.5,70.1667 -0.5,69.8333 -0.5,69.5C 4.10001,69.7204 8.43335,69.0538 12.5,67.5C 12.8333,67.5 13.1667,67.5 13.5,67.5C 33.1868,66.4013 52.5201,63.7346 71.5,59.5 Z"/></g>
<g><path style="opacity:0.141" fill="#fedbb3" d="M 12.5,67.5 C 8.43335,69.0538 4.10001,69.7204 -0.5,69.5C -0.5,69.1667 -0.5,68.8333 -0.5,68.5C 3.84223,68.2605 8.17556,67.9272 12.5,67.5 Z"/></g>
<g><path style="opacity:0.641" fill="#a9c54e" d="M 487.5,-0.5 C 490.167,-0.5 492.833,-0.5 495.5,-0.5C 495.5,77.8333 495.5,156.167 495.5,234.5C 495.082,235.222 494.416,235.722 493.5,236C 455.501,236.5 417.501,236.667 379.5,236.5C 343.5,236.5 307.5,236.5 271.5,236.5C 271.5,236.167 271.5,235.833 271.5,235.5C 345.832,234.88 420.165,234.547 494.5,234.5C 494.667,156.833 494.5,79.166 494,1.5C 491.25,0.708889 488.417,0.708889 485.5,1.5C 486.167,0.833333 486.833,0.166667 487.5,-0.5 Z"/></g>
<g><path style="opacity:0.004" fill="#fefffe" d="M 499.5,112.5 C 499.5,112.833 499.5,113.167 499.5,113.5C 498.83,113.019 498.83,112.685 499.5,112.5 Z"/></g>
<g><path style="opacity:0.331" fill="#c3d87b" d="M 227.5,38.5 C 227.5,104.5 227.5,170.5 227.5,236.5C 242.167,236.5 256.833,236.5 271.5,236.5C 307.5,236.5 343.5,236.5 379.5,236.5C 330.155,237.183 280.655,237.849 231,238.5C 229.564,238.441 228.231,238.108 227,237.5C 226.812,173.825 226.312,110.159 225.5,46.5C 225.287,43.4733 225.953,40.8066 227.5,38.5 Z"/></g>
<g><path style="opacity:0.353" fill="#e4a88a" d="M 201.5,237.5 C 201.5,172.833 201.5,108.167 201.5,43.5C 196.838,43.9625 192.171,44.4625 187.5,45C 186.584,45.2784 185.918,45.7784 185.5,46.5C 182.167,46.5 178.833,46.5 175.5,46.5C 173.5,46.5 171.5,46.5 169.5,46.5C 179.525,44.8031 189.692,43.1364 200,41.5C 201.261,41.7591 202.261,42.4258 203,43.5C 202.33,103.685 202.496,163.852 203.5,224C 203.333,227.833 203.167,231.667 203,235.5C 202.722,236.416 202.222,237.082 201.5,237.5 Z"/></g>
<g><path style="opacity:0.854" fill="#94ba24" d="M 271.5,33.5 C 257.855,35.379 244.188,37.379 230.5,39.5C 228.503,104.491 227.837,169.825 228.5,235.5C 242.833,235.5 257.167,235.5 271.5,235.5C 271.5,235.833 271.5,236.167 271.5,236.5C 256.833,236.5 242.167,236.5 227.5,236.5C 227.5,170.5 227.5,104.5 227.5,38.5C 233.184,38.7388 238.518,37.7388 243.5,35.5C 244.167,35.5 244.833,35.5 245.5,35.5C 254.153,34.6684 262.82,34.0017 271.5,33.5 Z"/></g>
<g><path style="opacity:0.063" fill="#f7ffbc" d="M 495.5,-0.5 C 495.833,-0.5 496.167,-0.5 496.5,-0.5C 496.176,15.0779 496.509,30.5779 497.5,46C 496.835,108.931 496.168,171.764 495.5,234.5C 495.5,156.167 495.5,77.8333 495.5,-0.5 Z"/></g>
<g><path style="opacity:0.894" fill="#e48157" d="M 201.5,237.5 C 134.333,238.347 66.9992,239.013 -0.5,239.5C -0.5,238.5 -0.5,237.5 -0.5,236.5C 66.5,236.5 133.5,236.5 200.5,236.5C 200.5,172.5 200.5,108.5 200.5,44.5C 195.5,45.1667 190.5,45.8333 185.5,46.5C 185.918,45.7784 186.584,45.2784 187.5,45C 192.171,44.4625 196.838,43.9625 201.5,43.5C 201.5,108.167 201.5,172.833 201.5,237.5 Z"/></g>
<g><path style="opacity:0.004" fill="#fefffe" d="M 33.5,246.5 C 34.8333,247.167 34.8333,247.167 33.5,246.5 Z"/></g>
<g><path style="opacity:0.004" fill="#fefffe" d="M 116.5,248.5 C 117.833,249.167 117.833,249.167 116.5,248.5 Z"/></g>
<g><path style="opacity:0.004" fill="#fefffe" d="M 417.5,248.5 C 418.833,249.167 418.833,249.167 417.5,248.5 Z"/></g>
<g><path style="opacity:0.004" fill="#fefffe" d="M 324.5,249.5 C 325.833,250.167 325.833,250.167 324.5,249.5 Z"/></g>
<g><path style="opacity:0.656" fill="#82d4eb" d="M -0.5,258.5 C 67.0038,258.54 134.337,259.207 201.5,260.5C 147.5,260.5 93.5,260.5 39.5,260.5C 26.1667,260.5 12.8333,260.5 -0.5,260.5C -0.5,259.833 -0.5,259.167 -0.5,258.5 Z"/></g>
<g><path style="opacity:1" fill="#00b2f0" d="M -0.5,260.5 C 12.8333,260.5 26.1667,260.5 39.5,260.5C 50.164,261.363 60.9973,262.03 72,262.5C 109.826,261.381 147.659,261.214 185.5,262C 190.418,262.195 195.251,262.695 200,263.5C 199.726,278.642 199.893,293.808 200.5,309C 200.623,320.726 199.956,332.393 198.5,344C 199.594,372.826 199.761,401.659 199,430.5C 198.582,434.178 198.082,437.845 197.5,441.5C 198.589,445.097 199.255,448.763 199.5,452.5C 198.5,452.5 197.5,452.5 196.5,452.5C 196.5,451.5 196.5,450.5 196.5,449.5C 187.604,449.651 178.77,448.985 170,447.5C 166.333,447.833 162.667,448.167 159,448.5C 151.785,447.658 144.618,446.658 137.5,445.5C 133.954,445.441 130.621,444.608 127.5,443C 111.648,441.341 95.6479,440.175 79.5,439.5C 77.9739,437.87 75.9739,437.037 73.5,437C 69.1667,436.667 64.8333,436.333 60.5,436C 48.1222,432.383 35.4555,430.716 22.5,431C 20.9559,430.71 19.6226,430.044 18.5,429C 12.1754,428.5 5.84209,428.334 -0.5,428.5C -0.5,372.5 -0.5,316.5 -0.5,260.5 Z"/></g>
<g><path style="opacity:1" fill="#fdc300" d="M 335.5,473.5 C 330.523,472.673 325.523,472.006 320.5,471.5C 319.972,470.279 319.305,469.113 318.5,468C 297.961,468.239 277.961,465.405 258.5,459.5C 254.202,460.297 249.868,460.63 245.5,460.5C 244.833,460.5 244.167,460.5 243.5,460.5C 244.058,459.21 245.058,458.377 246.5,458C 240.578,456.801 234.578,456.634 228.5,457.5C 228.5,392.833 228.5,328.167 228.5,263.5C 316.821,264.479 405.155,264.813 493.5,264.5C 493.5,341.167 493.5,417.833 493.5,494.5C 480.947,492.398 468.281,491.064 455.5,490.5C 455.231,488.571 455.731,486.905 457,485.5C 457.333,485.833 457.667,486.167 458,486.5C 459.825,485.897 461.659,485.23 463.5,484.5C 462.167,484.167 460.833,483.833 459.5,483.5C 454.151,484.658 448.818,484.824 443.5,484C 442.833,484.333 442.167,484.667 441.5,485C 443.577,485.192 445.577,485.692 447.5,486.5C 446.5,486.833 445.5,487.167 444.5,487.5C 438.82,486.322 433.153,485.155 427.5,484C 428.938,483.781 430.271,483.281 431.5,482.5C 424.985,481.024 418.652,481.358 412.5,483.5C 401.375,480.479 390.041,478.646 378.5,478C 374.754,475.576 370.421,475.076 365.5,476.5C 355.557,474.899 345.557,473.899 335.5,473.5 Z"/></g>
<g><path style="opacity:0.004" fill="#fefffe" d="M 207.5,365.5 C 208.833,366.167 208.833,366.167 207.5,365.5 Z"/></g>
<g><path style="opacity:1" fill="#f3c423" d="M 228.5,262.5 C 317.168,262.537 405.835,262.87 494.5,263.5C 494.5,340.833 494.5,418.167 494.5,495.5C 492.833,495.5 491.167,495.5 489.5,495.5C 486.5,495.5 483.5,495.5 480.5,495.5C 480.167,495.5 479.833,495.5 479.5,495.5C 478.051,493.836 476.051,493.002 473.5,493C 466.515,492.229 459.515,491.729 452.5,491.5C 452.167,491.5 451.833,491.5 451.5,491.5C 442.852,488.643 433.852,487.31 424.5,487.5C 424.167,487.5 423.833,487.5 423.5,487.5C 414.804,484.997 405.804,483.664 396.5,483.5C 396.167,483.5 395.833,483.5 395.5,483.5C 394.192,482.768 392.858,481.934 391.5,481C 383.835,480.405 376.168,479.905 368.5,479.5C 368.167,479.5 367.833,479.5 367.5,479.5C 356.945,476.852 346.278,474.852 335.5,473.5C 345.557,473.899 355.557,474.899 365.5,476.5C 370.421,475.076 374.754,475.576 378.5,478C 390.041,478.646 401.375,480.479 412.5,483.5C 418.652,481.358 424.985,481.024 431.5,482.5C 430.271,483.281 428.938,483.781 427.5,484C 433.153,485.155 438.82,486.322 444.5,487.5C 445.5,487.167 446.5,486.833 447.5,486.5C 445.577,485.692 443.577,485.192 441.5,485C 442.167,484.667 442.833,484.333 443.5,484C 448.818,484.824 454.151,484.658 459.5,483.5C 460.833,483.833 462.167,484.167 463.5,484.5C 461.659,485.23 459.825,485.897 458,486.5C 457.667,486.167 457.333,485.833 457,485.5C 455.731,486.905 455.231,488.571 455.5,490.5C 468.281,491.064 480.947,492.398 493.5,494.5C 493.5,417.833 493.5,341.167 493.5,264.5C 405.155,264.813 316.821,264.479 228.5,263.5C 228.5,328.167 228.5,392.833 228.5,457.5C 234.578,456.634 240.578,456.801 246.5,458C 245.058,458.377 244.058,459.21 243.5,460.5C 238.392,460.57 233.392,459.903 228.5,458.5C 227.5,393.503 227.167,328.503 227.5,263.5C 227.5,262.833 227.833,262.5 228.5,262.5 Z"/></g>
<g><path style="opacity:0.365" fill="#8fd1e3" d="M 201.5,260.5 C 202.222,260.918 202.722,261.584 203,262.5C 203.167,264.833 203.333,267.167 203.5,269.5C 202.941,331.494 202.774,393.494 203,455.5C 200.726,456.811 198.56,456.811 196.5,455.5C 198.167,455.5 199.833,455.5 201.5,455.5C 201.5,390.5 201.5,325.5 201.5,260.5 Z"/></g>
<g><path style="opacity:0.031" fill="#fffec6" d="M 269.5,261.5 C 255.656,261.171 241.99,261.504 228.5,262.5C 227.833,262.5 227.5,262.833 227.5,263.5C 226.501,328.331 226.168,393.331 226.5,458.5C 225.335,393.335 225.168,328.001 226,262.5C 226.5,262 227,261.5 227.5,261C 241.673,260.173 255.673,260.339 269.5,261.5 Z"/></g>
<g><path style="opacity:0.733" fill="#f4d96c" d="M 228.5,262.5 C 241.99,261.504 255.656,261.171 269.5,261.5C 345.071,261.168 420.571,261.502 496,262.5C 496.832,340.668 496.666,418.668 495.5,496.5C 493.265,496.795 491.265,496.461 489.5,495.5C 491.167,495.5 492.833,495.5 494.5,495.5C 494.5,418.167 494.5,340.833 494.5,263.5C 405.835,262.87 317.168,262.537 228.5,262.5 Z"/></g>
<g><path style="opacity:0.48" fill="#ecd065" d="M 227.5,263.5 C 227.167,328.503 227.5,393.503 228.5,458.5C 233.392,459.903 238.392,460.57 243.5,460.5C 244.167,460.5 244.833,460.5 245.5,460.5C 248.833,461.5 252.167,462.5 255.5,463.5C 246.134,462.662 236.801,461.496 227.5,460C 226.944,459.617 226.611,459.117 226.5,458.5C 226.168,393.331 226.501,328.331 227.5,263.5 Z"/></g>
<g><path style="opacity:1" fill="#21afdf" d="M 39.5,260.5 C 93.5,260.5 147.5,260.5 201.5,260.5C 201.5,325.5 201.5,390.5 201.5,455.5C 199.833,455.5 198.167,455.5 196.5,455.5C 178.794,453.447 161.127,451.113 143.5,448.5C 141.5,447.5 139.5,446.5 137.5,445.5C 144.618,446.658 151.785,447.658 159,448.5C 162.667,448.167 166.333,447.833 170,447.5C 178.77,448.985 187.604,449.651 196.5,449.5C 196.5,450.5 196.5,451.5 196.5,452.5C 197.5,452.5 198.5,452.5 199.5,452.5C 199.255,448.763 198.589,445.097 197.5,441.5C 198.082,437.845 198.582,434.178 199,430.5C 199.761,401.659 199.594,372.826 198.5,344C 199.956,332.393 200.623,320.726 200.5,309C 199.893,293.808 199.726,278.642 200,263.5C 195.251,262.695 190.418,262.195 185.5,262C 147.659,261.214 109.826,261.381 72,262.5C 60.9973,262.03 50.164,261.363 39.5,260.5 Z"/></g>
<g><path style="opacity:0.992" fill="#57c0de" d="M -0.5,429.5 C -0.5,429.167 -0.5,428.833 -0.5,428.5C 5.84209,428.334 12.1754,428.5 18.5,429C 19.6226,430.044 20.9559,430.71 22.5,431C 35.4555,430.716 48.1222,432.383 60.5,436C 64.8333,436.333 69.1667,436.667 73.5,437C 75.9739,437.037 77.9739,437.87 79.5,439.5C 52.8627,435.949 26.1961,432.616 -0.5,429.5 Z"/></g>
<g><path style="opacity:1" fill="#58c0e0" d="M 79.5,439.5 C 95.6479,440.175 111.648,441.341 127.5,443C 130.621,444.608 133.954,445.441 137.5,445.5C 139.5,446.5 141.5,447.5 143.5,448.5C 121.981,445.854 100.648,442.854 79.5,439.5 Z"/></g>
<g><path style="opacity:1" fill="#f2c625" d="M 320.5,471.5 C 317.833,471.5 315.167,471.5 312.5,471.5C 311.833,471.5 311.167,471.5 310.5,471.5C 306.419,469.929 302.085,468.762 297.5,468C 293.179,467.501 288.846,467.334 284.5,467.5C 281.763,467.599 279.096,467.265 276.5,466.5C 269.776,464.492 262.776,463.492 255.5,463.5C 252.167,462.5 248.833,461.5 245.5,460.5C 249.868,460.63 254.202,460.297 258.5,459.5C 277.961,465.405 297.961,468.239 318.5,468C 319.305,469.113 319.972,470.279 320.5,471.5 Z"/></g>
<g><path style="opacity:0.004" fill="#fefffe" d="M 220.5,461.5 C 221.833,462.167 221.833,462.167 220.5,461.5 Z"/></g>
<g><path style="opacity:0.467" fill="#f9e784" d="M 255.5,463.5 C 262.776,463.492 269.776,464.492 276.5,466.5C 269.301,465.948 262.301,464.948 255.5,463.5 Z"/></g>
<g><path style="opacity:0.49" fill="#f3da6e" d="M 284.5,467.5 C 288.846,467.334 293.179,467.501 297.5,468C 302.085,468.762 306.419,469.929 310.5,471.5C 301.638,470.577 292.971,469.244 284.5,467.5 Z"/></g>
<g><path style="opacity:0.341" fill="#f8e27c" d="M 312.5,471.5 C 315.167,471.5 317.833,471.5 320.5,471.5C 325.523,472.006 330.523,472.673 335.5,473.5C 346.278,474.852 356.945,476.852 367.5,479.5C 348.981,477.188 330.648,474.522 312.5,471.5 Z"/></g>
<g><path style="opacity:0.824" fill="#f1db68" d="M 368.5,479.5 C 376.168,479.905 383.835,480.405 391.5,481C 392.858,481.934 394.192,482.768 395.5,483.5C 386.287,482.708 377.287,481.375 368.5,479.5 Z"/></g>
<g><path style="opacity:0.004" fill="#fefffe" d="M 123.5,482.5 C 124.833,483.167 124.833,483.167 123.5,482.5 Z"/></g>
<g><path style="opacity:0.525" fill="#fae58f" d="M 396.5,483.5 C 405.804,483.664 414.804,484.997 423.5,487.5C 414.289,486.685 405.289,485.351 396.5,483.5 Z"/></g>
<g><path style="opacity:0.008" fill="#fefffe" d="M 229.5,487.5 C 230.833,488.167 230.833,488.167 229.5,487.5 Z"/></g>
<g><path style="opacity:0.667" fill="#fae788" d="M 424.5,487.5 C 433.852,487.31 442.852,488.643 451.5,491.5C 442.287,490.708 433.287,489.375 424.5,487.5 Z"/></g>
<g><path style="opacity:0.004" fill="#fefffe" d="M 230.5,490.5 C 231.833,491.167 231.833,491.167 230.5,490.5 Z"/></g>
<g><path style="opacity:0.447" fill="#f7e380" d="M 452.5,491.5 C 459.515,491.729 466.515,492.229 473.5,493C 476.051,493.002 478.051,493.836 479.5,495.5C 470.313,494.522 461.313,493.188 452.5,491.5 Z"/></g>
<g><path style="opacity:0.004" fill="#fefffe" d="M 408.5,495.5 C 409.833,496.167 409.833,496.167 408.5,495.5 Z"/></g>
<g><path style="opacity:0.345" fill="#fbf1a0" d="M 480.5,495.5 C 483.5,495.5 486.5,495.5 489.5,495.5C 491.265,496.461 493.265,496.795 495.5,496.5C 494.551,497.152 493.385,497.486 492,497.5C 487.978,497.108 484.145,496.442 480.5,495.5 Z"/></g>
</svg>
