<?xml version="1.0" encoding="UTF-8"?>
<!DOCTYPE svg PUBLIC "-//W3C//DTD SVG 1.1//EN" "http://www.w3.org/Graphics/SVG/1.1/DTD/svg11.dtd">
<svg xmlns="http://www.w3.org/2000/svg" version="1.1" width="4096px" height="4096px" style="shape-rendering:geometricPrecision; text-rendering:geometricPrecision; image-rendering:optimizeQuality; fill-rule:evenodd; clip-rule:evenodd" xmlns:xlink="http://www.w3.org/1999/xlink">
<g><path style="opacity:0.999" fill="#0b6d00" d="M 2047.5,551.5 C 2047.5,1356.83 2047.5,2162.17 2047.5,2967.5C 1903.05,2967.46 1764.05,2940.3 1630.5,2886C 1582.42,2865.12 1537.42,2838.78 1495.5,2807C 1481.16,2794.1 1468.32,2779.94 1457,2764.5C 1422.69,2713.41 1399.52,2657.41 1387.5,2596.5C 1386.36,2589.27 1384.69,2582.27 1382.5,2575.5C 1382.78,2573.59 1382.45,2571.92 1381.5,2570.5C 1380.14,2562.72 1378.81,2555.05 1377.5,2547.5C 1375.64,2536.3 1373.14,2525.3 1370,2514.5C 1369.71,2510.14 1369.21,2505.8 1368.5,2501.5C 1365.06,2490.05 1360.56,2479.05 1355,2468.5C 1343.52,2452.5 1328.35,2441.84 1309.5,2436.5C 1299.5,2433.93 1289.5,2433.93 1279.5,2436.5C 1277.14,2436.34 1274.81,2436.5 1272.5,2437C 1246.27,2445.56 1229.11,2463.06 1221,2489.5C 1219.88,2499.15 1219.54,2508.82 1220,2518.5C 1230.23,2573.6 1243.07,2628.1 1258.5,2682C 1276.18,2737.87 1302.35,2789.04 1337,2835.5C 1386.31,2896.94 1444.48,2947.44 1511.5,2987C 1626.29,3048.2 1748.63,3087.37 1878.5,3104.5C 1885.62,3106.04 1892.96,3107.04 1900.5,3107.5C 1906.74,3107.28 1912.74,3107.94 1918.5,3109.5C 1925.29,3110.88 1932.29,3111.54 1939.5,3111.5C 1940.5,3111.5 1941.5,3111.5 1942.5,3111.5C 1949.94,3113.06 1957.61,3113.72 1965.5,3113.5C 1992.66,3114.83 2019.99,3115.5 2047.5,3115.5C 2047.5,3258.17 2047.5,3400.83 2047.5,3543.5C 2005.49,3542.45 1963.49,3540.95 1921.5,3539C 1877.3,3532.16 1832.97,3526.16 1788.5,3521C 1748.07,3512.43 1707.74,3503.77 1667.5,3495C 1624.36,3481.81 1581.36,3468.81 1538.5,3456C 1496.73,3437.3 1454.39,3419.3 1411.5,3402C 1374.5,3383 1337.5,3364 1300.5,3345C 1274,3328.36 1247.34,3311.86 1220.5,3295.5C 1219.61,3294.68 1219.28,3293.68 1219.5,3292.5C 1218.13,3292.66 1216.79,3292.49 1215.5,3292C 1199.37,3282.87 1184.04,3272.54 1169.5,3261C 1142.42,3238.29 1114.75,3216.29 1086.5,3195C 1055.54,3167.05 1024.21,3139.38 992.5,3112C 961.674,3077.51 930.841,3043.01 900,3008.5C 878.074,2980.32 855.907,2952.32 833.5,2924.5C 824.673,2914.17 816.84,2903.17 810,2891.5C 788.104,2855.33 766.104,2819.33 744,2783.5C 726.857,2748.55 709.19,2713.88 691,2679.5C 674.363,2637.98 657.029,2596.98 639,2556.5C 627.286,2516.35 614.952,2476.35 602,2436.5C 592.989,2394.77 583.989,2353.11 575,2311.5C 569.49,2268.92 563.49,2226.58 557,2184.5C 556.085,2152.01 554.418,2119.68 552,2087.5C 551.333,2060.17 551.333,2032.83 552,2005.5C 554.477,1977.67 555.811,1949.67 556,1921.5C 561.844,1879.21 567.51,1836.87 573,1794.5C 581.62,1751.73 590.62,1709.07 600,1666.5C 613.579,1620.47 627.579,1574.8 642,1529.5C 659.099,1490.9 675.766,1451.9 692,1412.5C 714.235,1370.37 736.235,1328.03 758,1285.5C 778.881,1252.76 799.548,1219.76 820,1186.5C 848.306,1150.86 876.639,1115.19 905,1079.5C 933.473,1048.02 961.64,1016.19 989.5,984C 1022.53,956.288 1054.87,927.955 1086.5,899C 1121.31,871.625 1155.98,844.292 1190.5,817C 1226.83,794.96 1262.83,772.627 1298.5,750C 1328.91,734.628 1359.24,718.962 1389.5,703C 1421.28,687.023 1453.78,672.856 1487,660.5C 1503.48,653.091 1519.98,645.757 1536.5,638.5C 1577.11,626.391 1617.78,613.891 1658.5,601C 1701.75,591.682 1745.08,582.349 1788.5,573C 1829.27,568.064 1869.94,562.397 1910.5,556C 1935.33,555.509 1960,554.175 1984.5,552C 2005.5,551.5 2026.5,551.333 2047.5,551.5 Z"/></g>
<g><path style="opacity:0.999" fill="#585857" d="M 2047.5,551.5 C 2071.17,551.333 2094.84,551.5 2118.5,552C 2141.79,554.119 2165.12,555.452 2188.5,556C 2228.36,562.63 2268.36,568.296 2308.5,573C 2346.7,581.64 2385.03,589.64 2423.5,597C 2468.76,611.137 2514.1,624.97 2559.5,638.5C 2600.91,656.867 2642.57,674.701 2684.5,692C 2720.27,711.386 2756.6,730.052 2793.5,748C 2829.57,771.376 2866.24,794.042 2903.5,816C 2942.72,846.769 2981.72,877.769 3020.5,909C 3021.77,910.307 3022.77,911.807 3023.5,913.5C 3049.45,935.77 3075.45,958.103 3101.5,980.5C 3113.43,992.662 3124.6,1005.33 3135,1018.5C 3138.31,1020.32 3140.64,1022.99 3142,1026.5C 3155.34,1040.51 3168.34,1054.84 3181,1069.5C 3181.48,1070.45 3181.65,1071.45 3181.5,1072.5C 3184.59,1072.63 3186.43,1074.29 3187,1077.5C 3190.22,1080.26 3193.22,1083.26 3196,1086.5C 3221.98,1120.15 3248.32,1153.48 3275,1186.5C 3298.37,1223.93 3321.7,1261.26 3345,1298.5C 3361.01,1330.51 3377.01,1362.51 3393,1394.5C 3396.51,1400.01 3399.85,1405.68 3403,1411.5C 3419.01,1451.45 3435.85,1490.95 3453.5,1530C 3466.8,1570.49 3479.64,1611.32 3492,1652.5C 3501.79,1696.67 3511.46,1741.01 3521,1785.5C 3526.05,1828.65 3532.05,1871.65 3539,1914.5C 3539.12,1942.56 3540.46,1970.56 3543,1998.5C 3543.67,2031.17 3543.67,2063.83 3543,2096.5C 3540.54,2124.11 3539.21,2151.78 3539,2179.5C 3531.99,2222.25 3525.99,2265.25 3521,2308.5C 3511.99,2350.52 3502.99,2392.52 3494,2434.5C 3480.87,2474.71 3468.54,2515.05 3457,2555.5C 3438.44,2597.48 3420.44,2639.81 3403,2682.5C 3384.89,2716.21 3367.56,2750.21 3351,2784.5C 3326.93,2824.3 3302.6,2863.97 3278,2903.5C 3267.34,2917.66 3256.51,2931.66 3245.5,2945.5C 3244.68,2946.39 3243.68,2946.72 3242.5,2946.5C 3242.65,2947.55 3242.48,2948.55 3242,2949.5C 3238.42,2953.65 3235.09,2957.99 3232,2962.5C 3216.78,2982.07 3201.11,3001.4 3185,3020.5C 3176.94,3028.35 3169.61,3036.68 3163,3045.5C 3156.03,3052.81 3149.03,3060.14 3142,3067.5C 3138.98,3072.2 3135.48,3076.53 3131.5,3080.5C 3130.68,3081.39 3129.68,3081.72 3128.5,3081.5C 3128.41,3085.35 3126.57,3088.02 3123,3089.5C 3122.33,3090.83 3121.67,3092.17 3121,3093.5C 3116.49,3097.01 3112.65,3101.18 3109.5,3106C 3108.55,3106.48 3107.55,3106.65 3106.5,3106.5C 3106.65,3107.55 3106.48,3108.55 3106,3109.5C 3100.45,3114.06 3094.95,3118.56 3089.5,3123C 3087.87,3126.52 3085.2,3128.35 3081.5,3128.5C 3081.61,3130.9 3080.61,3132.74 3078.5,3134C 3063.86,3146.3 3049.19,3158.64 3034.5,3171C 3030.17,3176 3025.5,3180.67 3020.5,3185C 2999.12,3202.35 2977.79,3219.68 2956.5,3237C 2950.99,3240.49 2945.65,3244.16 2940.5,3248C 2939.66,3249.01 2939.33,3250.18 2939.5,3251.5C 2938.07,3251.42 2936.74,3251.75 2935.5,3252.5C 2925.31,3261.51 2914.64,3270.01 2903.5,3278C 2864.46,3302.92 2825.13,3327.08 2785.5,3350.5C 2767.51,3359.23 2749.51,3368.06 2731.5,3377C 2714.03,3386.82 2696.37,3396.15 2678.5,3405C 2637.25,3421.97 2596.25,3439.3 2555.5,3457C 2548.7,3457.62 2542.37,3459.62 2536.5,3463C 2504.85,3471.66 2473.51,3481.33 2442.5,3492C 2399.93,3501.32 2357.26,3510.65 2314.5,3520C 2269.86,3525.42 2225.53,3531.76 2181.5,3539C 2152.66,3539.07 2123.99,3540.41 2095.5,3543C 2079.5,3543.5 2063.5,3543.67 2047.5,3543.5C 2047.5,3400.83 2047.5,3258.17 2047.5,3115.5C 2093.23,3114.72 2138.56,3111.05 2183.5,3104.5C 2192.05,3103.73 2200.38,3102.39 2208.5,3100.5C 2212.42,3100.57 2216.09,3099.9 2219.5,3098.5C 2234.79,3096.37 2249.79,3093.37 2264.5,3089.5C 2267.7,3090.04 2270.36,3089.37 2272.5,3087.5C 2275.73,3087.32 2278.73,3086.66 2281.5,3085.5C 2288.09,3084.41 2294.42,3082.74 2300.5,3080.5C 2339.04,3070.21 2376.71,3057.54 2413.5,3042.5C 2417.82,3041.17 2422.15,3039.84 2426.5,3038.5C 2426.86,3037.82 2427.2,3037.15 2427.5,3036.5C 2478.11,3013.61 2525.44,2985.78 2569.5,2953C 2578.9,2943.9 2588.9,2935.4 2599.5,2927.5C 2601.34,2926.6 2602.67,2925.26 2603.5,2923.5C 2604.83,2922.83 2605.83,2921.83 2606.5,2920.5C 2608.75,2919.92 2610.42,2918.59 2611.5,2916.5C 2611.37,2915.76 2611.54,2915.09 2612,2914.5C 2615.72,2911.61 2619.22,2908.61 2622.5,2905.5C 2624.5,2904.17 2626.17,2902.5 2627.5,2900.5C 2629.15,2897.19 2631.48,2894.52 2634.5,2892.5C 2637.17,2891.83 2638.83,2890.17 2639.5,2887.5C 2640.17,2887.5 2640.5,2887.17 2640.5,2886.5C 2643.17,2885.83 2644.83,2884.17 2645.5,2881.5C 2646.17,2881.17 2646.83,2880.83 2647.5,2880.5C 2649.59,2879.42 2650.92,2877.75 2651.5,2875.5C 2652.17,2875.5 2652.5,2875.17 2652.5,2874.5C 2654.26,2873.74 2655.26,2872.4 2655.5,2870.5C 2658.95,2867.63 2661.95,2864.29 2664.5,2860.5C 2666.45,2859.97 2667.45,2858.63 2667.5,2856.5C 2671.37,2852.38 2675.04,2848.05 2678.5,2843.5C 2680.73,2842.6 2681.73,2840.93 2681.5,2838.5C 2684.66,2835.5 2687.32,2832.16 2689.5,2828.5C 2691.73,2827.6 2692.73,2825.93 2692.5,2823.5C 2696.77,2817.95 2700.77,2812.28 2704.5,2806.5C 2705.4,2805.71 2706.07,2804.71 2706.5,2803.5C 2707.68,2801.31 2708.68,2798.97 2709.5,2796.5C 2709.96,2795.7 2710.62,2795.37 2711.5,2795.5C 2713.42,2792.96 2715.25,2790.29 2717,2787.5C 2717.49,2786.21 2717.66,2784.87 2717.5,2783.5C 2720.74,2778.02 2723.74,2772.35 2726.5,2766.5C 2727.91,2766.03 2728.57,2765.03 2728.5,2763.5C 2753.77,2711.02 2772.11,2656.02 2783.5,2598.5C 2785.12,2595.83 2785.78,2592.83 2785.5,2589.5C 2786.77,2587.09 2787.43,2584.43 2787.5,2581.5C 2789.78,2573.41 2791.45,2565.08 2792.5,2556.5C 2796.71,2537.44 2800.04,2518.11 2802.5,2498.5C 2804.41,2495.32 2805.08,2491.65 2804.5,2487.5C 2805.46,2485.74 2805.79,2483.74 2805.5,2481.5C 2807.08,2476.42 2807.75,2471.08 2807.5,2465.5C 2807.5,2462.5 2807.5,2459.5 2807.5,2456.5C 2807.73,2452.08 2806.73,2448.08 2804.5,2444.5C 2803.91,2441.31 2802.74,2438.31 2801,2435.5C 2797.63,2431.41 2794.8,2427.08 2792.5,2422.5C 2791.92,2420.25 2790.59,2418.58 2788.5,2417.5C 2788.29,2416.08 2787.79,2414.74 2787,2413.5C 2783.5,2411.33 2780.67,2408.5 2778.5,2405C 2774.85,2403.17 2771.52,2400.84 2768.5,2398C 2767.55,2397.52 2766.55,2397.35 2765.5,2397.5C 2763.73,2395.11 2761.4,2393.44 2758.5,2392.5C 2754.6,2390.1 2750.26,2388.77 2745.5,2388.5C 2739.5,2388.5 2733.5,2388.5 2727.5,2388.5C 2723.82,2388.33 2720.15,2388.5 2716.5,2389C 2713.98,2390.72 2711.31,2391.89 2708.5,2392.5C 2704.75,2393.41 2701.42,2395.08 2698.5,2397.5C 2696.33,2398.8 2693.99,2399.97 2691.5,2401C 2689.81,2402.31 2688.47,2403.81 2687.5,2405.5C 2685.25,2406.08 2683.58,2407.41 2682.5,2409.5C 2681.66,2409.84 2681.33,2410.51 2681.5,2411.5C 2679.5,2411.5 2678.5,2412.5 2678.5,2414.5C 2674.86,2417.99 2671.7,2421.99 2669,2426.5C 2668.34,2428.81 2667.84,2431.15 2667.5,2433.5C 2664.4,2438.35 2663.06,2443.68 2663.5,2449.5C 2661.93,2451.1 2661.26,2453.1 2661.5,2455.5C 2656.82,2487.61 2651.48,2519.61 2645.5,2551.5C 2643.23,2559.26 2641.57,2567.26 2640.5,2575.5C 2638.07,2582.21 2636.41,2589.21 2635.5,2596.5C 2633.96,2598.84 2633.29,2601.5 2633.5,2604.5C 2626.84,2626.07 2620.18,2647.74 2613.5,2669.5C 2611.93,2671.1 2611.26,2673.1 2611.5,2675.5C 2609.39,2678.89 2607.72,2682.56 2606.5,2686.5C 2605.06,2688.96 2604.06,2691.63 2603.5,2694.5C 2601.71,2696.43 2600.71,2698.76 2600.5,2701.5C 2598.68,2706.48 2596.34,2711.15 2593.5,2715.5C 2591.17,2720.12 2588.84,2724.79 2586.5,2729.5C 2585.83,2731.5 2585.17,2733.5 2584.5,2735.5C 2582.55,2736.03 2581.55,2737.37 2581.5,2739.5C 2579.75,2740.66 2578.75,2742.33 2578.5,2744.5C 2576.98,2748.04 2574.98,2751.38 2572.5,2754.5C 2571.09,2754.97 2570.43,2755.97 2570.5,2757.5C 2569.66,2757.84 2569.33,2758.51 2569.5,2759.5C 2567.1,2761.3 2565.43,2763.63 2564.5,2766.5C 2557.46,2776.19 2550.12,2785.86 2542.5,2795.5C 2539.53,2798.81 2536.53,2802.14 2533.5,2805.5C 2528.44,2810.57 2523.1,2815.23 2517.5,2819.5C 2511.14,2824.02 2505.14,2829.02 2499.5,2834.5C 2494.64,2836.76 2490.3,2839.76 2486.5,2843.5C 2484.71,2844.36 2483.05,2845.36 2481.5,2846.5C 2475.74,2849.98 2470.08,2853.65 2464.5,2857.5C 2464.5,2858.17 2464.17,2858.5 2463.5,2858.5C 2460.01,2859.41 2457.01,2861.08 2454.5,2863.5C 2447.36,2868.58 2439.69,2872.91 2431.5,2876.5C 2428.52,2877.33 2425.85,2878.66 2423.5,2880.5C 2423.16,2881.34 2422.49,2881.67 2421.5,2881.5C 2418.08,2882.2 2415.42,2883.86 2413.5,2886.5C 2412.17,2886.83 2410.83,2887.17 2409.5,2887.5C 2406.01,2888.41 2403.01,2890.08 2400.5,2892.5C 2336.58,2921.25 2269.92,2941.58 2200.5,2953.5C 2184.05,2955.63 2167.55,2957.63 2151,2959.5C 2149.32,2959.61 2148.15,2960.27 2147.5,2961.5C 2133.84,2963.24 2120.18,2964.91 2106.5,2966.5C 2086.84,2967.25 2067.18,2967.59 2047.5,2967.5C 2047.5,2162.17 2047.5,1356.83 2047.5,551.5 Z"/></g>
<g><path style="opacity:1" fill="#a6882f" d="M 2595.5,1194.5 C 2595.5,1194.83 2595.5,1195.17 2595.5,1195.5C 2585.15,1195.4 2574.81,1195.73 2564.5,1196.5C 2565.95,1195.7 2567.62,1195.2 2569.5,1195C 2578.16,1194.5 2586.83,1194.33 2595.5,1194.5 Z"/></g>
<g><path style="opacity:1" fill="#796b47" d="M 2595.5,1195.5 C 2595.5,1195.17 2595.5,1194.83 2595.5,1194.5C 2600.78,1194.1 2605.78,1194.76 2610.5,1196.5C 2609.17,1196.5 2607.83,1196.5 2606.5,1196.5C 2602.86,1195.89 2599.2,1195.55 2595.5,1195.5 Z"/></g>
<g><path style="opacity:1" fill="#febe00" d="M 2595.5,1195.5 C 2599.2,1195.55 2602.86,1195.89 2606.5,1196.5C 2606.97,1197.69 2607.97,1198.36 2609.5,1198.5C 2618,1199.11 2626.33,1200.45 2634.5,1202.5C 2695.42,1221.09 2735.09,1261.09 2753.5,1322.5C 2755.58,1331.4 2756.91,1340.4 2757.5,1349.5C 2757.63,1364.54 2756.97,1379.54 2755.5,1394.5C 2755.01,1396.81 2754.67,1399.14 2754.5,1401.5C 2754.5,1401.83 2754.5,1402.17 2754.5,1402.5C 2752.95,1407.32 2751.61,1412.32 2750.5,1417.5C 2749.08,1419.51 2748.41,1421.85 2748.5,1424.5C 2746.1,1427.31 2744.77,1430.64 2744.5,1434.5C 2742.06,1436.12 2740.72,1438.45 2740.5,1441.5C 2739.66,1441.84 2739.33,1442.51 2739.5,1443.5C 2737.08,1446.01 2735.41,1449.01 2734.5,1452.5C 2733.6,1453.29 2732.93,1454.29 2732.5,1455.5C 2730.75,1456.66 2729.75,1458.33 2729.5,1460.5C 2717.18,1477.16 2702.84,1491.82 2686.5,1504.5C 2684.33,1504.75 2682.66,1505.75 2681.5,1507.5C 2679.15,1508.34 2677.15,1509.67 2675.5,1511.5C 2673.03,1511.75 2671.03,1512.75 2669.5,1514.5C 2667.33,1514.75 2665.66,1515.75 2664.5,1517.5C 2663.61,1518.11 2662.61,1518.44 2661.5,1518.5C 2659.15,1518.59 2657.49,1519.59 2656.5,1521.5C 2652.62,1522.41 2648.95,1523.75 2645.5,1525.5C 2643.21,1525.59 2641.21,1526.26 2639.5,1527.5C 2636.08,1529.02 2632.42,1530.02 2628.5,1530.5C 2623.58,1530.87 2618.91,1531.87 2614.5,1533.5C 2614.17,1533.5 2613.83,1533.5 2613.5,1533.5C 2608.92,1533.44 2604.59,1534.1 2600.5,1535.5C 2586.44,1535.79 2572.44,1535.13 2558.5,1533.5C 2553.32,1533.29 2548.32,1532.29 2543.5,1530.5C 2539.5,1528.39 2535.16,1527.06 2530.5,1526.5C 2526.47,1525.92 2522.8,1524.58 2519.5,1522.5C 2516.75,1520.4 2513.75,1518.57 2510.5,1517C 2509.21,1516.51 2507.87,1516.34 2506.5,1516.5C 2469.8,1497.14 2443.14,1468.47 2426.5,1430.5C 2426.74,1428.1 2426.07,1426.1 2424.5,1424.5C 2420.2,1413.92 2417.53,1402.92 2416.5,1391.5C 2415.38,1382.37 2414.71,1373.21 2414.5,1364C 2415.04,1353.45 2416.04,1342.95 2417.5,1332.5C 2417.45,1330.1 2417.78,1327.76 2418.5,1325.5C 2420.07,1323.9 2420.74,1321.9 2420.5,1319.5C 2422.28,1316.5 2423.28,1313.16 2423.5,1309.5C 2425.92,1306.66 2427.25,1303.33 2427.5,1299.5C 2428.8,1294.24 2431.13,1289.57 2434.5,1285.5C 2436.53,1282.78 2438.19,1279.78 2439.5,1276.5C 2444.29,1266.38 2450.96,1257.71 2459.5,1250.5C 2461.91,1249.09 2463.58,1247.09 2464.5,1244.5C 2469.04,1242.63 2472.71,1239.63 2475.5,1235.5C 2477.97,1232.24 2480.97,1229.4 2484.5,1227C 2486.08,1225.91 2487.74,1225.07 2489.5,1224.5C 2493.21,1224.29 2495.87,1222.62 2497.5,1219.5C 2498.87,1219.66 2500.21,1219.49 2501.5,1219C 2503.89,1217.07 2506.23,1215.24 2508.5,1213.5C 2510.18,1211.17 2512.51,1210.17 2515.5,1210.5C 2520.67,1209.58 2525.34,1207.58 2529.5,1204.5C 2534.16,1203.94 2538.5,1202.61 2542.5,1200.5C 2542.83,1200.5 2543.17,1200.5 2543.5,1200.5C 2550.82,1200.25 2557.82,1198.91 2564.5,1196.5C 2574.81,1195.73 2585.15,1195.4 2595.5,1195.5 Z"/></g>
<g><path style="opacity:1" fill="#c89d22" d="M 2564.5,1196.5 C 2557.82,1198.91 2550.82,1200.25 2543.5,1200.5C 2550.12,1197.77 2557.12,1196.43 2564.5,1196.5 Z"/></g>
<g><path style="opacity:1" fill="#17e900" d="M 1434.5,1200.5 C 1453.2,1200.46 1471.86,1201.12 1490.5,1202.5C 1499.24,1204.35 1507.91,1206.52 1516.5,1209C 1579.12,1234.78 1616.12,1280.94 1627.5,1347.5C 1628.22,1358.82 1628.55,1370.15 1628.5,1381.5C 1618.96,1454.02 1580.29,1503.69 1512.5,1530.5C 1506.29,1531.8 1500.29,1533.46 1494.5,1535.5C 1490.53,1536.16 1486.53,1536.5 1482.5,1536.5C 1473.7,1537.57 1464.87,1538.24 1456,1538.5C 1446.81,1538.07 1437.64,1537.4 1428.5,1536.5C 1390.23,1530.83 1357.73,1514.17 1331,1486.5C 1305.19,1458.83 1290.02,1426.17 1285.5,1388.5C 1283.21,1366.81 1284.88,1345.48 1290.5,1324.5C 1297.36,1297.1 1310.7,1273.43 1330.5,1253.5C 1333.83,1250.83 1336.83,1247.83 1339.5,1244.5C 1348.56,1235.47 1358.56,1227.64 1369.5,1221C 1377.52,1216.83 1385.85,1213.33 1394.5,1210.5C 1402.31,1208.34 1409.98,1206.01 1417.5,1203.5C 1422.87,1201.55 1428.54,1200.55 1434.5,1200.5 Z"/></g>
<g><path style="opacity:1" fill="#15cd00" d="M 1490.5,1202.5 C 1471.86,1201.12 1453.2,1200.46 1434.5,1200.5C 1453.26,1197.7 1471.93,1198.37 1490.5,1202.5 Z"/></g>
<g><path style="opacity:1" fill="#d7a61b" d="M 2606.5,1196.5 C 2607.83,1196.5 2609.17,1196.5 2610.5,1196.5C 2618.84,1197.51 2626.84,1199.51 2634.5,1202.5C 2626.33,1200.45 2618,1199.11 2609.5,1198.5C 2607.97,1198.36 2606.97,1197.69 2606.5,1196.5 Z"/></g>
<g><path style="opacity:1" fill="#b28f2a" d="M 2542.5,1200.5 C 2538.5,1202.61 2534.16,1203.94 2529.5,1204.5C 2533.5,1202.39 2537.84,1201.06 2542.5,1200.5 Z"/></g>
<g><path style="opacity:1" fill="#12b000" d="M 1417.5,1203.5 C 1409.98,1206.01 1402.31,1208.34 1394.5,1210.5C 1401.65,1206.79 1409.32,1204.45 1417.5,1203.5 Z"/></g>
<g><path style="opacity:1" fill="#c99e22" d="M 2529.5,1204.5 C 2525.34,1207.58 2520.67,1209.58 2515.5,1210.5C 2519.66,1207.42 2524.33,1205.42 2529.5,1204.5 Z"/></g>
<g><path style="opacity:1" fill="#cb9f22" d="M 2508.5,1213.5 C 2506.23,1215.24 2503.89,1217.07 2501.5,1219C 2500.21,1219.49 2498.87,1219.66 2497.5,1219.5C 2500.47,1216.39 2504.13,1214.39 2508.5,1213.5 Z"/></g>
<g><path style="opacity:1" fill="#cc9f22" d="M 2497.5,1219.5 C 2495.87,1222.62 2493.21,1224.29 2489.5,1224.5C 2491.48,1221.84 2494.15,1220.17 2497.5,1219.5 Z"/></g>
<g><path style="opacity:1" fill="#c09825" d="M 2475.5,1235.5 C 2472.71,1239.63 2469.04,1242.63 2464.5,1244.5C 2467.87,1241.13 2471.54,1238.13 2475.5,1235.5 Z"/></g>
<g><path style="opacity:1" fill="#b99328" d="M 2464.5,1244.5 C 2463.58,1247.09 2461.91,1249.09 2459.5,1250.5C 2460.42,1247.91 2462.09,1245.91 2464.5,1244.5 Z"/></g>
<g><path style="opacity:1" fill="#12b900" d="M 1339.5,1244.5 C 1336.83,1247.83 1333.83,1250.83 1330.5,1253.5C 1332.5,1249.5 1335.5,1246.5 1339.5,1244.5 Z"/></g>
<g><path style="opacity:1" fill="#b89329" d="M 2439.5,1276.5 C 2438.19,1279.78 2436.53,1282.78 2434.5,1285.5C 2434.94,1281.75 2436.61,1278.75 2439.5,1276.5 Z"/></g>
<g><path style="opacity:1" fill="#bb9429" d="M 2427.5,1299.5 C 2427.25,1303.33 2425.92,1306.66 2423.5,1309.5C 2423.75,1305.67 2425.08,1302.34 2427.5,1299.5 Z"/></g>
<g><path style="opacity:1" fill="#b79328" d="M 2423.5,1309.5 C 2423.28,1313.16 2422.28,1316.5 2420.5,1319.5C 2420.72,1315.84 2421.72,1312.5 2423.5,1309.5 Z"/></g>
<g><path style="opacity:1" fill="#a88930" d="M 2420.5,1319.5 C 2420.74,1321.9 2420.07,1323.9 2418.5,1325.5C 2418.26,1323.1 2418.93,1321.1 2420.5,1319.5 Z"/></g>
<g><path style="opacity:1" fill="#0d8b00" d="M 1627.5,1347.5 C 1628.99,1354.1 1629.66,1360.94 1629.5,1368C 1629.5,1372.68 1629.17,1377.18 1628.5,1381.5C 1628.55,1370.15 1628.22,1358.82 1627.5,1347.5 Z"/></g>
<g><path style="opacity:1" fill="#ae8d2d" d="M 2417.5,1332.5 C 2416.04,1342.95 2415.04,1353.45 2414.5,1364C 2414.71,1373.21 2415.38,1382.37 2416.5,1391.5C 2414.07,1382.97 2413.07,1374.14 2413.5,1365C 2413.03,1353.81 2414.36,1342.97 2417.5,1332.5 Z"/></g>
<g><path style="opacity:1" fill="#cfa11d" d="M 2757.5,1349.5 C 2758.17,1354.66 2758.5,1359.99 2758.5,1365.5C 2758.56,1375.24 2757.89,1384.91 2756.5,1394.5C 2756.17,1394.5 2755.83,1394.5 2755.5,1394.5C 2756.97,1379.54 2757.63,1364.54 2757.5,1349.5 Z"/></g>
<g><path style="opacity:1" fill="#10a700" d="M 1290.5,1324.5 C 1284.88,1345.48 1283.21,1366.81 1285.5,1388.5C 1282.42,1369.18 1283.25,1349.85 1288,1330.5C 1288.57,1328.28 1289.4,1326.28 1290.5,1324.5 Z"/></g>
<g><path style="opacity:1" fill="#8a763e" d="M 2755.5,1394.5 C 2755.83,1394.5 2756.17,1394.5 2756.5,1394.5C 2756.59,1397.15 2755.92,1399.49 2754.5,1401.5C 2754.67,1399.14 2755.01,1396.81 2755.5,1394.5 Z"/></g>
<g><path style="opacity:1" fill="#7e6f45" d="M 2754.5,1402.5 C 2755.16,1408.14 2753.83,1413.14 2750.5,1417.5C 2751.61,1412.32 2752.95,1407.32 2754.5,1402.5 Z"/></g>
<g><path style="opacity:1" fill="#877540" d="M 2750.5,1417.5 C 2750.59,1420.15 2749.92,1422.49 2748.5,1424.5C 2748.41,1421.85 2749.08,1419.51 2750.5,1417.5 Z"/></g>
<g><path style="opacity:1" fill="#877442" d="M 2424.5,1424.5 C 2426.07,1426.1 2426.74,1428.1 2426.5,1430.5C 2424.93,1428.9 2424.26,1426.9 2424.5,1424.5 Z"/></g>
<g><path style="opacity:1" fill="#88753f" d="M 2744.5,1434.5 C 2743.53,1437.1 2742.2,1439.43 2740.5,1441.5C 2740.72,1438.45 2742.06,1436.12 2744.5,1434.5 Z"/></g>
<g><path style="opacity:1" fill="#7f6f46" d="M 2739.5,1443.5 C 2739.66,1444.87 2739.49,1446.21 2739,1447.5C 2737.93,1449.69 2736.43,1451.36 2734.5,1452.5C 2735.41,1449.01 2737.08,1446.01 2739.5,1443.5 Z"/></g>
<g><path style="opacity:1" fill="#897541" d="M 2732.5,1455.5 C 2732.41,1457.85 2731.41,1459.51 2729.5,1460.5C 2729.75,1458.33 2730.75,1456.66 2732.5,1455.5 Z"/></g>
<g><path style="opacity:1" fill="#927b3b" d="M 2686.5,1504.5 C 2685.51,1506.41 2683.85,1507.41 2681.5,1507.5C 2682.66,1505.75 2684.33,1504.75 2686.5,1504.5 Z"/></g>
<g><path style="opacity:1" fill="#9a8037" d="M 2675.5,1511.5 C 2673.97,1513.25 2671.97,1514.25 2669.5,1514.5C 2671.03,1512.75 2673.03,1511.75 2675.5,1511.5 Z"/></g>
<g><path style="opacity:1" fill="#867441" d="M 2669.5,1514.5 C 2668.51,1516.41 2666.85,1517.41 2664.5,1517.5C 2665.66,1515.75 2667.33,1514.75 2669.5,1514.5 Z"/></g>
<g><path style="opacity:1" fill="#c09826" d="M 2506.5,1516.5 C 2507.87,1516.34 2509.21,1516.51 2510.5,1517C 2513.75,1518.57 2516.75,1520.4 2519.5,1522.5C 2514.71,1521.27 2510.37,1519.27 2506.5,1516.5 Z"/></g>
<g><path style="opacity:1" fill="#967e3a" d="M 2661.5,1518.5 C 2660.34,1520.25 2658.67,1521.25 2656.5,1521.5C 2657.49,1519.59 2659.15,1518.59 2661.5,1518.5 Z"/></g>
<g><path style="opacity:1" fill="#b89228" d="M 2530.5,1526.5 C 2535.16,1527.06 2539.5,1528.39 2543.5,1530.5C 2538.82,1529.94 2534.49,1528.61 2530.5,1526.5 Z"/></g>
<g><path style="opacity:1" fill="#8a753f" d="M 2645.5,1525.5 C 2644.01,1527.28 2642.01,1527.95 2639.5,1527.5C 2641.21,1526.26 2643.21,1525.59 2645.5,1525.5 Z"/></g>
<g><path style="opacity:1" fill="#867441" d="M 2628.5,1530.5 C 2624.27,1532.96 2619.61,1533.96 2614.5,1533.5C 2618.91,1531.87 2623.58,1530.87 2628.5,1530.5 Z"/></g>
<g><path style="opacity:1" fill="#10a300" d="M 1512.5,1530.5 C 1506.93,1533.35 1500.93,1535.02 1494.5,1535.5C 1500.29,1533.46 1506.29,1531.8 1512.5,1530.5 Z"/></g>
<g><path style="opacity:1" fill="#907a3c" d="M 2613.5,1533.5 C 2609.46,1535.18 2605.12,1535.84 2600.5,1535.5C 2604.59,1534.1 2608.92,1533.44 2613.5,1533.5 Z"/></g>
<g><path style="opacity:1" fill="#957d39" d="M 2558.5,1533.5 C 2572.44,1535.13 2586.44,1535.79 2600.5,1535.5C 2590.68,1536.66 2580.68,1536.82 2570.5,1536C 2566.26,1535.67 2562.26,1534.83 2558.5,1533.5 Z"/></g>
<g><path style="opacity:1" fill="#15ce00" d="M 1428.5,1536.5 C 1437.64,1537.4 1446.81,1538.07 1456,1538.5C 1464.87,1538.24 1473.7,1537.57 1482.5,1536.5C 1473.63,1538.91 1464.47,1539.91 1455,1539.5C 1445.86,1539.93 1437.03,1538.93 1428.5,1536.5 Z"/></g>
<g><path style="opacity:1" fill="#786b47" d="M 2745.5,2388.5 C 2750.26,2388.77 2754.6,2390.1 2758.5,2392.5C 2757.17,2392.5 2755.83,2392.5 2754.5,2392.5C 2751.5,2391.17 2748.5,2389.83 2745.5,2388.5 Z"/></g>
<g><path style="opacity:1" fill="#b18e2b" d="M 2727.5,2388.5 C 2721.26,2390.15 2714.93,2391.49 2708.5,2392.5C 2711.31,2391.89 2713.98,2390.72 2716.5,2389C 2720.15,2388.5 2723.82,2388.33 2727.5,2388.5 Z"/></g>
<g><path style="opacity:1" fill="#febe00" d="M 2727.5,2388.5 C 2733.5,2388.5 2739.5,2388.5 2745.5,2388.5C 2748.5,2389.83 2751.5,2391.17 2754.5,2392.5C 2757.91,2394.47 2761.58,2396.14 2765.5,2397.5C 2766.55,2397.35 2767.55,2397.52 2768.5,2398C 2771.52,2400.84 2774.85,2403.17 2778.5,2405C 2780.67,2408.5 2783.5,2411.33 2787,2413.5C 2787.79,2414.74 2788.29,2416.08 2788.5,2417.5C 2789.08,2419.75 2790.41,2421.42 2792.5,2422.5C 2794.8,2427.08 2797.63,2431.41 2801,2435.5C 2802.74,2438.31 2803.91,2441.31 2804.5,2444.5C 2804.6,2448.85 2805.6,2452.85 2807.5,2456.5C 2807.5,2459.5 2807.5,2462.5 2807.5,2465.5C 2805.55,2470.4 2804.89,2475.73 2805.5,2481.5C 2805.79,2483.74 2805.46,2485.74 2804.5,2487.5C 2803.31,2490.95 2802.65,2494.61 2802.5,2498.5C 2800.04,2518.11 2796.71,2537.44 2792.5,2556.5C 2790.95,2557.23 2790.12,2558.56 2790,2560.5C 2789.36,2567.53 2788.53,2574.53 2787.5,2581.5C 2785.96,2583.84 2785.29,2586.5 2785.5,2589.5C 2784.34,2592.27 2783.68,2595.27 2783.5,2598.5C 2772.11,2656.02 2753.77,2711.02 2728.5,2763.5C 2727.09,2763.97 2726.43,2764.97 2726.5,2766.5C 2723.74,2772.35 2720.74,2778.02 2717.5,2783.5C 2714.48,2786.88 2712.48,2790.88 2711.5,2795.5C 2710.62,2795.37 2709.96,2795.7 2709.5,2796.5C 2708.68,2798.97 2707.68,2801.31 2706.5,2803.5C 2704.95,2803.82 2704.29,2804.82 2704.5,2806.5C 2700.77,2812.28 2696.77,2817.95 2692.5,2823.5C 2691.11,2824.9 2690.11,2826.57 2689.5,2828.5C 2687.32,2832.16 2684.66,2835.5 2681.5,2838.5C 2680.11,2839.9 2679.11,2841.57 2678.5,2843.5C 2675.04,2848.05 2671.37,2852.38 2667.5,2856.5C 2666.03,2857.44 2665.03,2858.77 2664.5,2860.5C 2661.95,2864.29 2658.95,2867.63 2655.5,2870.5C 2653.74,2871.26 2652.74,2872.6 2652.5,2874.5C 2652.5,2875.17 2652.17,2875.5 2651.5,2875.5C 2649.41,2876.58 2648.08,2878.25 2647.5,2880.5C 2646.83,2880.83 2646.17,2881.17 2645.5,2881.5C 2643.5,2882.83 2641.83,2884.5 2640.5,2886.5C 2640.5,2887.17 2640.17,2887.5 2639.5,2887.5C 2637.5,2888.83 2635.83,2890.5 2634.5,2892.5C 2631.48,2894.52 2629.15,2897.19 2627.5,2900.5C 2624.83,2901.17 2623.17,2902.83 2622.5,2905.5C 2619.22,2908.61 2615.72,2911.61 2612,2914.5C 2611.54,2915.09 2611.37,2915.76 2611.5,2916.5C 2609.25,2917.08 2607.58,2918.41 2606.5,2920.5C 2605.83,2921.83 2604.83,2922.83 2603.5,2923.5C 2601.23,2923.96 2599.89,2925.29 2599.5,2927.5C 2588.9,2935.4 2578.9,2943.9 2569.5,2953C 2525.44,2985.78 2478.11,3013.61 2427.5,3036.5C 2422.48,3037.94 2417.81,3039.94 2413.5,3042.5C 2376.71,3057.54 2339.04,3070.21 2300.5,3080.5C 2294.42,3080.16 2288.59,3081.16 2283,3083.5C 2281.97,3083.84 2281.47,3084.5 2281.5,3085.5C 2278.73,3086.66 2275.73,3087.32 2272.5,3087.5C 2269.57,3087.57 2266.91,3088.23 2264.5,3089.5C 2249.79,3093.37 2234.79,3096.37 2219.5,3098.5C 2215.58,3098.43 2211.91,3099.1 2208.5,3100.5C 2201.09,3100.3 2193.76,3100.97 2186.5,3102.5C 2184.97,3102.64 2183.97,3103.31 2183.5,3104.5C 2138.56,3111.05 2093.23,3114.72 2047.5,3115.5C 2047.5,3066.5 2047.5,3017.5 2047.5,2968.5C 2067.36,2968.94 2087.03,2968.27 2106.5,2966.5C 2120.18,2964.91 2133.84,2963.24 2147.5,2961.5C 2165.48,2960.05 2183.15,2957.38 2200.5,2953.5C 2269.92,2941.58 2336.58,2921.25 2400.5,2892.5C 2404.28,2892.11 2407.28,2890.44 2409.5,2887.5C 2410.83,2887.17 2412.17,2886.83 2413.5,2886.5C 2416.92,2885.8 2419.58,2884.14 2421.5,2881.5C 2422.49,2881.67 2423.16,2881.34 2423.5,2880.5C 2427.08,2880.71 2429.75,2879.37 2431.5,2876.5C 2439.69,2872.91 2447.36,2868.58 2454.5,2863.5C 2458.5,2863.51 2461.5,2861.84 2463.5,2858.5C 2464.17,2858.5 2464.5,2858.17 2464.5,2857.5C 2465.87,2857.66 2467.21,2857.49 2468.5,2857C 2471.69,2853.93 2475.36,2851.6 2479.5,2850C 2480.31,2848.89 2480.97,2847.72 2481.5,2846.5C 2483.05,2845.36 2484.71,2844.36 2486.5,2843.5C 2487.87,2843.66 2489.21,2843.49 2490.5,2843C 2493.34,2839.99 2496.34,2837.16 2499.5,2834.5C 2505.14,2829.02 2511.14,2824.02 2517.5,2819.5C 2524.36,2816.65 2529.69,2811.98 2533.5,2805.5C 2536.44,2803.74 2539.27,2801.74 2542,2799.5C 2542.49,2798.21 2542.66,2796.87 2542.5,2795.5C 2550.12,2785.86 2557.46,2776.19 2564.5,2766.5C 2566.9,2764.7 2568.57,2762.37 2569.5,2759.5C 2569.33,2758.51 2569.66,2757.84 2570.5,2757.5C 2571.91,2757.03 2572.57,2756.03 2572.5,2754.5C 2574.98,2751.38 2576.98,2748.04 2578.5,2744.5C 2580.41,2743.51 2581.41,2741.85 2581.5,2739.5C 2583.45,2738.97 2584.45,2737.63 2584.5,2735.5C 2585.17,2733.5 2585.83,2731.5 2586.5,2729.5C 2590.35,2725.65 2592.68,2720.99 2593.5,2715.5C 2596.34,2711.15 2598.68,2706.48 2600.5,2701.5C 2602.83,2699.82 2603.83,2697.49 2603.5,2694.5C 2604.06,2691.63 2605.06,2688.96 2606.5,2686.5C 2608.62,2685.01 2610.12,2683.01 2611,2680.5C 2611.49,2678.87 2611.66,2677.2 2611.5,2675.5C 2613.07,2673.9 2613.74,2671.9 2613.5,2669.5C 2620.18,2647.74 2626.84,2626.07 2633.5,2604.5C 2634.77,2602.09 2635.43,2599.43 2635.5,2596.5C 2636.41,2589.21 2638.07,2582.21 2640.5,2575.5C 2642.05,2574.77 2642.88,2573.44 2643,2571.5C 2644.81,2564.95 2645.64,2558.28 2645.5,2551.5C 2651.48,2519.61 2656.82,2487.61 2661.5,2455.5C 2663.07,2453.9 2663.74,2451.9 2663.5,2449.5C 2663.06,2443.68 2664.4,2438.35 2667.5,2433.5C 2671.34,2427.38 2675,2421.05 2678.5,2414.5C 2679.83,2413.83 2680.83,2412.83 2681.5,2411.5C 2681.33,2410.51 2681.66,2409.84 2682.5,2409.5C 2684.75,2408.92 2686.42,2407.59 2687.5,2405.5C 2688.47,2403.81 2689.81,2402.31 2691.5,2401C 2693.99,2399.97 2696.33,2398.8 2698.5,2397.5C 2702.37,2396.9 2705.7,2395.23 2708.5,2392.5C 2714.93,2391.49 2721.26,2390.15 2727.5,2388.5 Z"/></g>
<g><path style="opacity:1" fill="#c69b23" d="M 2754.5,2392.5 C 2755.83,2392.5 2757.17,2392.5 2758.5,2392.5C 2761.4,2393.44 2763.73,2395.11 2765.5,2397.5C 2761.58,2396.14 2757.91,2394.47 2754.5,2392.5 Z"/></g>
<g><path style="opacity:1" fill="#b6912a" d="M 2708.5,2392.5 C 2705.7,2395.23 2702.37,2396.9 2698.5,2397.5C 2701.42,2395.08 2704.75,2393.41 2708.5,2392.5 Z"/></g>
<g><path style="opacity:1" fill="#b48f29" d="M 2687.5,2405.5 C 2686.42,2407.59 2684.75,2408.92 2682.5,2409.5C 2683.58,2407.41 2685.25,2406.08 2687.5,2405.5 Z"/></g>
<g><path style="opacity:1" fill="#9d8233" d="M 2681.5,2411.5 C 2680.83,2412.83 2679.83,2413.83 2678.5,2414.5C 2678.5,2412.5 2679.5,2411.5 2681.5,2411.5 Z"/></g>
<g><path style="opacity:1" fill="#a98a2f" d="M 2678.5,2414.5 C 2675,2421.05 2671.34,2427.38 2667.5,2433.5C 2667.84,2431.15 2668.34,2428.81 2669,2426.5C 2671.7,2421.99 2674.86,2417.99 2678.5,2414.5 Z"/></g>
<g><path style="opacity:1" fill="#b69127" d="M 2788.5,2417.5 C 2790.59,2418.58 2791.92,2420.25 2792.5,2422.5C 2790.41,2421.42 2789.08,2419.75 2788.5,2417.5 Z"/></g>
<g><path style="opacity:1" fill="#13c100" d="M 1309.5,2436.5 C 1299.5,2436.5 1289.5,2436.5 1279.5,2436.5C 1289.5,2433.93 1299.5,2433.93 1309.5,2436.5 Z"/></g>
<g><path style="opacity:1" fill="#17e900" d="M 1279.5,2436.5 C 1289.5,2436.5 1299.5,2436.5 1309.5,2436.5C 1328.35,2441.84 1343.52,2452.5 1355,2468.5C 1360.56,2479.05 1365.06,2490.05 1368.5,2501.5C 1369.21,2505.8 1369.71,2510.14 1370,2514.5C 1373.14,2525.3 1375.64,2536.3 1377.5,2547.5C 1376.62,2555.75 1377.95,2563.42 1381.5,2570.5C 1382.45,2571.92 1382.78,2573.59 1382.5,2575.5C 1382.38,2580.23 1382.88,2584.9 1384,2589.5C 1384.14,2592.44 1385.31,2594.78 1387.5,2596.5C 1399.52,2657.41 1422.69,2713.41 1457,2764.5C 1468.32,2779.94 1481.16,2794.1 1495.5,2807C 1537.42,2838.78 1582.42,2865.12 1630.5,2886C 1764.05,2940.3 1903.05,2967.46 2047.5,2967.5C 2047.5,2967.83 2047.5,2968.17 2047.5,2968.5C 2047.5,3017.5 2047.5,3066.5 2047.5,3115.5C 2019.99,3115.5 1992.66,3114.83 1965.5,3113.5C 1958.24,3111.53 1950.57,3110.87 1942.5,3111.5C 1941.5,3111.5 1940.5,3111.5 1939.5,3111.5C 1939.39,3110.88 1939.06,3110.38 1938.5,3110C 1931.84,3109.5 1925.17,3109.33 1918.5,3109.5C 1912.74,3107.94 1906.74,3107.28 1900.5,3107.5C 1898.69,3105.8 1896.36,3104.97 1893.5,3105C 1888.51,3104.5 1883.51,3104.33 1878.5,3104.5C 1748.63,3087.37 1626.29,3048.2 1511.5,2987C 1444.48,2947.44 1386.31,2896.94 1337,2835.5C 1302.35,2789.04 1276.18,2737.87 1258.5,2682C 1243.07,2628.1 1230.23,2573.6 1220,2518.5C 1219.54,2508.82 1219.88,2499.15 1221,2489.5C 1229.11,2463.06 1246.27,2445.56 1272.5,2437C 1274.81,2436.5 1277.14,2436.34 1279.5,2436.5 Z"/></g>
<g><path style="opacity:1" fill="#c19825" d="M 2804.5,2444.5 C 2806.73,2448.08 2807.73,2452.08 2807.5,2456.5C 2805.6,2452.85 2804.6,2448.85 2804.5,2444.5 Z"/></g>
<g><path style="opacity:1" fill="#a98a2e" d="M 2663.5,2449.5 C 2663.74,2451.9 2663.07,2453.9 2661.5,2455.5C 2661.26,2453.1 2661.93,2451.1 2663.5,2449.5 Z"/></g>
<g><path style="opacity:1" fill="#c99d23" d="M 2807.5,2465.5 C 2807.75,2471.08 2807.08,2476.42 2805.5,2481.5C 2804.89,2475.73 2805.55,2470.4 2807.5,2465.5 Z"/></g>
<g><path style="opacity:1" fill="#877441" d="M 2804.5,2487.5 C 2805.08,2491.65 2804.41,2495.32 2802.5,2498.5C 2802.65,2494.61 2803.31,2490.95 2804.5,2487.5 Z"/></g>
<g><path style="opacity:1" fill="#13bc00" d="M 1377.5,2547.5 C 1378.81,2555.05 1380.14,2562.72 1381.5,2570.5C 1377.95,2563.42 1376.62,2555.75 1377.5,2547.5 Z"/></g>
<g><path style="opacity:1" fill="#d8a71a" d="M 2645.5,2551.5 C 2645.64,2558.28 2644.81,2564.95 2643,2571.5C 2642.88,2573.44 2642.05,2574.77 2640.5,2575.5C 2641.57,2567.26 2643.23,2559.26 2645.5,2551.5 Z"/></g>
<g><path style="opacity:1" fill="#bb9527" d="M 2792.5,2556.5 C 2791.45,2565.08 2789.78,2573.41 2787.5,2581.5C 2788.53,2574.53 2789.36,2567.53 2790,2560.5C 2790.12,2558.56 2790.95,2557.23 2792.5,2556.5 Z"/></g>
<g><path style="opacity:1" fill="#13c400" d="M 1382.5,2575.5 C 1384.69,2582.27 1386.36,2589.27 1387.5,2596.5C 1385.31,2594.78 1384.14,2592.44 1384,2589.5C 1382.88,2584.9 1382.38,2580.23 1382.5,2575.5 Z"/></g>
<g><path style="opacity:1" fill="#b59127" d="M 2787.5,2581.5 C 2787.43,2584.43 2786.77,2587.09 2785.5,2589.5C 2785.29,2586.5 2785.96,2583.84 2787.5,2581.5 Z"/></g>
<g><path style="opacity:1" fill="#b49028" d="M 2785.5,2589.5 C 2785.78,2592.83 2785.12,2595.83 2783.5,2598.5C 2783.68,2595.27 2784.34,2592.27 2785.5,2589.5 Z"/></g>
<g><path style="opacity:1" fill="#b49029" d="M 2635.5,2596.5 C 2635.43,2599.43 2634.77,2602.09 2633.5,2604.5C 2633.29,2601.5 2633.96,2598.84 2635.5,2596.5 Z"/></g>
<g><path style="opacity:1" fill="#b59129" d="M 2613.5,2669.5 C 2613.74,2671.9 2613.07,2673.9 2611.5,2675.5C 2611.26,2673.1 2611.93,2671.1 2613.5,2669.5 Z"/></g>
<g><path style="opacity:1" fill="#ba9429" d="M 2611.5,2675.5 C 2611.66,2677.2 2611.49,2678.87 2611,2680.5C 2610.12,2683.01 2608.62,2685.01 2606.5,2686.5C 2607.72,2682.56 2609.39,2678.89 2611.5,2675.5 Z"/></g>
<g><path style="opacity:1" fill="#b8932b" d="M 2603.5,2694.5 C 2603.83,2697.49 2602.83,2699.82 2600.5,2701.5C 2600.71,2698.76 2601.71,2696.43 2603.5,2694.5 Z"/></g>
<g><path style="opacity:1" fill="#9f8335" d="M 2593.5,2715.5 C 2592.68,2720.99 2590.35,2725.65 2586.5,2729.5C 2588.84,2724.79 2591.17,2720.12 2593.5,2715.5 Z"/></g>
<g><path style="opacity:1" fill="#b9932b" d="M 2584.5,2735.5 C 2584.45,2737.63 2583.45,2738.97 2581.5,2739.5C 2581.55,2737.37 2582.55,2736.03 2584.5,2735.5 Z"/></g>
<g><path style="opacity:1" fill="#b18e2e" d="M 2581.5,2739.5 C 2581.41,2741.85 2580.41,2743.51 2578.5,2744.5C 2578.75,2742.33 2579.75,2740.66 2581.5,2739.5 Z"/></g>
<g><path style="opacity:1" fill="#9b8136" d="M 2572.5,2754.5 C 2572.57,2756.03 2571.91,2757.03 2570.5,2757.5C 2570.43,2755.97 2571.09,2754.97 2572.5,2754.5 Z"/></g>
<g><path style="opacity:1" fill="#b3902b" d="M 2569.5,2759.5 C 2568.57,2762.37 2566.9,2764.7 2564.5,2766.5C 2565.43,2763.63 2567.1,2761.3 2569.5,2759.5 Z"/></g>
<g><path style="opacity:1" fill="#9a8036" d="M 2728.5,2763.5 C 2728.57,2765.03 2727.91,2766.03 2726.5,2766.5C 2726.43,2764.97 2727.09,2763.97 2728.5,2763.5 Z"/></g>
<g><path style="opacity:1" fill="#857343" d="M 2717.5,2783.5 C 2717.66,2784.87 2717.49,2786.21 2717,2787.5C 2715.25,2790.29 2713.42,2792.96 2711.5,2795.5C 2712.48,2790.88 2714.48,2786.88 2717.5,2783.5 Z"/></g>
<g><path style="opacity:1" fill="#c69c23" d="M 2542.5,2795.5 C 2542.66,2796.87 2542.49,2798.21 2542,2799.5C 2539.27,2801.74 2536.44,2803.74 2533.5,2805.5C 2536.53,2802.14 2539.53,2798.81 2542.5,2795.5 Z"/></g>
<g><path style="opacity:1" fill="#987f37" d="M 2706.5,2803.5 C 2706.07,2804.71 2705.4,2805.71 2704.5,2806.5C 2704.29,2804.82 2704.95,2803.82 2706.5,2803.5 Z"/></g>
<g><path style="opacity:1" fill="#bc9526" d="M 2533.5,2805.5 C 2529.69,2811.98 2524.36,2816.65 2517.5,2819.5C 2523.1,2815.23 2528.44,2810.57 2533.5,2805.5 Z"/></g>
<g><path style="opacity:1" fill="#998038" d="M 2692.5,2823.5 C 2692.73,2825.93 2691.73,2827.6 2689.5,2828.5C 2690.11,2826.57 2691.11,2824.9 2692.5,2823.5 Z"/></g>
<g><path style="opacity:1" fill="#9b8037" d="M 2681.5,2838.5 C 2681.73,2840.93 2680.73,2842.6 2678.5,2843.5C 2679.11,2841.57 2680.11,2839.9 2681.5,2838.5 Z"/></g>
<g><path style="opacity:1" fill="#cb9e23" d="M 2499.5,2834.5 C 2496.34,2837.16 2493.34,2839.99 2490.5,2843C 2489.21,2843.49 2487.87,2843.66 2486.5,2843.5C 2490.3,2839.76 2494.64,2836.76 2499.5,2834.5 Z"/></g>
<g><path style="opacity:1" fill="#c49a26" d="M 2481.5,2846.5 C 2480.97,2847.72 2480.31,2848.89 2479.5,2850C 2475.36,2851.6 2471.69,2853.93 2468.5,2857C 2467.21,2857.49 2465.87,2857.66 2464.5,2857.5C 2470.08,2853.65 2475.74,2849.98 2481.5,2846.5 Z"/></g>
<g><path style="opacity:1" fill="#9c8136" d="M 2667.5,2856.5 C 2667.45,2858.63 2666.45,2859.97 2664.5,2860.5C 2665.03,2858.77 2666.03,2857.44 2667.5,2856.5 Z"/></g>
<g><path style="opacity:1" fill="#bf9729" d="M 2463.5,2858.5 C 2461.5,2861.84 2458.5,2863.51 2454.5,2863.5C 2457.01,2861.08 2460.01,2859.41 2463.5,2858.5 Z"/></g>
<g><path style="opacity:1" fill="#987f38" d="M 2655.5,2870.5 C 2655.26,2872.4 2654.26,2873.74 2652.5,2874.5C 2652.74,2872.6 2653.74,2871.26 2655.5,2870.5 Z"/></g>
<g><path style="opacity:1" fill="#8a763f" d="M 2651.5,2875.5 C 2650.92,2877.75 2649.59,2879.42 2647.5,2880.5C 2648.08,2878.25 2649.41,2876.58 2651.5,2875.5 Z"/></g>
<g><path style="opacity:1" fill="#b5912c" d="M 2431.5,2876.5 C 2429.75,2879.37 2427.08,2880.71 2423.5,2880.5C 2425.85,2878.66 2428.52,2877.33 2431.5,2876.5 Z"/></g>
<g><path style="opacity:1" fill="#8d783d" d="M 2645.5,2881.5 C 2644.83,2884.17 2643.17,2885.83 2640.5,2886.5C 2641.83,2884.5 2643.5,2882.83 2645.5,2881.5 Z"/></g>
<g><path style="opacity:1" fill="#ba9429" d="M 2421.5,2881.5 C 2419.58,2884.14 2416.92,2885.8 2413.5,2886.5C 2415.42,2883.86 2418.08,2882.2 2421.5,2881.5 Z"/></g>
<g><path style="opacity:1" fill="#af8d2f" d="M 2409.5,2887.5 C 2407.28,2890.44 2404.28,2892.11 2400.5,2892.5C 2403.01,2890.08 2406.01,2888.41 2409.5,2887.5 Z"/></g>
<g><path style="opacity:1" fill="#917b3b" d="M 2639.5,2887.5 C 2638.83,2890.17 2637.17,2891.83 2634.5,2892.5C 2635.83,2890.5 2637.5,2888.83 2639.5,2887.5 Z"/></g>
<g><path style="opacity:1" fill="#8d783e" d="M 2627.5,2900.5 C 2626.17,2902.5 2624.5,2904.17 2622.5,2905.5C 2623.17,2902.83 2624.83,2901.17 2627.5,2900.5 Z"/></g>
<g><path style="opacity:1" fill="#907a3c" d="M 2611.5,2916.5 C 2610.42,2918.59 2608.75,2919.92 2606.5,2920.5C 2607.58,2918.41 2609.25,2917.08 2611.5,2916.5 Z"/></g>
<g><path style="opacity:1" fill="#998038" d="M 2603.5,2923.5 C 2602.67,2925.26 2601.34,2926.6 2599.5,2927.5C 2599.89,2925.29 2601.23,2923.96 2603.5,2923.5 Z"/></g>
<g><path style="opacity:1" fill="#6a624e" d="M 2200.5,2953.5 C 2183.15,2957.38 2165.48,2960.05 2147.5,2961.5C 2148.15,2960.27 2149.32,2959.61 2151,2959.5C 2167.55,2957.63 2184.05,2955.63 2200.5,2953.5 Z"/></g>
<g><path style="opacity:1" fill="#cfa018" d="M 2106.5,2966.5 C 2087.03,2968.27 2067.36,2968.94 2047.5,2968.5C 2047.5,2968.17 2047.5,2967.83 2047.5,2967.5C 2067.18,2967.59 2086.84,2967.25 2106.5,2966.5 Z"/></g>
<g><path style="opacity:1" fill="#796b47" d="M 2427.5,3036.5 C 2427.2,3037.15 2426.86,3037.82 2426.5,3038.5C 2422.15,3039.84 2417.82,3041.17 2413.5,3042.5C 2417.81,3039.94 2422.48,3037.94 2427.5,3036.5 Z"/></g>
<g><path style="opacity:1" fill="#cda020" d="M 2300.5,3080.5 C 2294.42,3082.74 2288.09,3084.41 2281.5,3085.5C 2281.47,3084.5 2281.97,3083.84 2283,3083.5C 2288.59,3081.16 2294.42,3080.16 2300.5,3080.5 Z"/></g>
<g><path style="opacity:1" fill="#877441" d="M 2272.5,3087.5 C 2270.36,3089.37 2267.7,3090.04 2264.5,3089.5C 2266.91,3088.23 2269.57,3087.57 2272.5,3087.5 Z"/></g>
<g><path style="opacity:1" fill="#a5872f" d="M 2219.5,3098.5 C 2216.09,3099.9 2212.42,3100.57 2208.5,3100.5C 2211.91,3099.1 2215.58,3098.43 2219.5,3098.5 Z"/></g>
<g><path style="opacity:1" fill="#c49a25" d="M 2208.5,3100.5 C 2200.38,3102.39 2192.05,3103.73 2183.5,3104.5C 2183.97,3103.31 2184.97,3102.64 2186.5,3102.5C 2193.76,3100.97 2201.09,3100.3 2208.5,3100.5 Z"/></g>
<g><path style="opacity:1" fill="#13c300" d="M 1878.5,3104.5 C 1883.51,3104.33 1888.51,3104.5 1893.5,3105C 1896.36,3104.97 1898.69,3105.8 1900.5,3107.5C 1892.96,3107.04 1885.62,3106.04 1878.5,3104.5 Z"/></g>
<g><path style="opacity:1" fill="#13c100" d="M 1918.5,3109.5 C 1925.17,3109.33 1931.84,3109.5 1938.5,3110C 1939.06,3110.38 1939.39,3110.88 1939.5,3111.5C 1932.29,3111.54 1925.29,3110.88 1918.5,3109.5 Z"/></g>
<g><path style="opacity:1" fill="#13c000" d="M 1942.5,3111.5 C 1950.57,3110.87 1958.24,3111.53 1965.5,3113.5C 1957.61,3113.72 1949.94,3113.06 1942.5,3111.5 Z"/></g>
</svg>
