<?xml version="1.0" encoding="UTF-8"?>
<!DOCTYPE svg PUBLIC "-//W3C//DTD SVG 1.1//EN" "http://www.w3.org/Graphics/SVG/1.1/DTD/svg11.dtd">
<svg xmlns="http://www.w3.org/2000/svg" version="1.1" width="1000px" height="1000px" style="shape-rendering:geometricPrecision; text-rendering:geometricPrecision; image-rendering:optimizeQuality; fill-rule:evenodd; clip-rule:evenodd" xmlns:xlink="http://www.w3.org/1999/xlink">
<g><path style="opacity:1" fill="#0077d3" d="M 546.5,69.5 C 546.5,205.167 546.5,340.833 546.5,476.5C 410.833,476.5 275.167,476.5 139.5,476.5C 139.5,340.833 139.5,205.167 139.5,69.5C 275.167,69.5 410.833,69.5 546.5,69.5 Z"/></g>
<g><path style="opacity:1" fill="#0077d6" d="M 592.5,69.5 C 593.833,69.5 595.167,69.5 596.5,69.5C 596.5,205.167 596.5,340.833 596.5,476.5C 595.167,476.5 593.833,476.5 592.5,476.5C 592.5,340.833 592.5,205.167 592.5,69.5 Z"/></g>
<g><path style="opacity:1" fill="#0077d3" d="M 596.5,69.5 C 730.833,69.5 865.167,69.5 999.5,69.5C 999.5,205.167 999.5,340.833 999.5,476.5C 865.167,476.5 730.833,476.5 596.5,476.5C 596.5,340.833 596.5,205.167 596.5,69.5 Z"/></g>
<g><path style="opacity:0.51" fill="#1771b6" d="M 546.5,69.5 C 547.5,205.332 547.833,341.332 547.5,477.5C 411.332,477.833 275.332,477.5 139.5,476.5C 275.167,476.5 410.833,476.5 546.5,476.5C 546.5,340.833 546.5,205.167 546.5,69.5 Z"/></g>
<g><path style="opacity:0.51" fill="#1771b6" d="M 592.5,69.5 C 592.5,205.167 592.5,340.833 592.5,476.5C 593.833,476.5 595.167,476.5 596.5,476.5C 730.833,476.5 865.167,476.5 999.5,476.5C 999.5,476.833 999.5,477.167 999.5,477.5C 863.5,477.5 727.5,477.5 591.5,477.5C 591.167,341.332 591.5,205.332 592.5,69.5 Z"/></g>
<g><path style="opacity:0.686" fill="#1771b7" d="M 139.5,522.5 C 275.332,521.5 411.332,521.167 547.5,521.5C 547.833,657.668 547.5,793.668 546.5,929.5C 546.5,795.167 546.5,660.833 546.5,526.5C 546.5,525.167 546.5,523.833 546.5,522.5C 410.833,522.5 275.167,522.5 139.5,522.5 Z"/></g>
<g><path style="opacity:1" fill="#0077d6" d="M 139.5,522.5 C 275.167,522.5 410.833,522.5 546.5,522.5C 546.5,523.833 546.5,525.167 546.5,526.5C 410.833,526.5 275.167,526.5 139.5,526.5C 139.5,525.167 139.5,523.833 139.5,522.5 Z"/></g>
<g><path style="opacity:1" fill="#0077d6" d="M 999.5,522.5 C 999.5,523.833 999.5,525.167 999.5,526.5C 865.167,526.5 730.833,526.5 596.5,526.5C 596.5,660.833 596.5,795.167 596.5,929.5C 595.167,929.5 593.833,929.5 592.5,929.5C 592.5,793.833 592.5,658.167 592.5,522.5C 728.167,522.5 863.833,522.5 999.5,522.5 Z"/></g>
<g><path style="opacity:0.686" fill="#1870b7" d="M 999.5,521.5 C 999.5,521.833 999.5,522.167 999.5,522.5C 863.833,522.5 728.167,522.5 592.5,522.5C 592.5,658.167 592.5,793.833 592.5,929.5C 591.5,793.668 591.167,657.668 591.5,521.5C 727.5,521.5 863.5,521.5 999.5,521.5 Z"/></g>
<g><path style="opacity:1" fill="#0077d3" d="M 139.5,526.5 C 275.167,526.5 410.833,526.5 546.5,526.5C 546.5,660.833 546.5,795.167 546.5,929.5C 410.833,929.5 275.167,929.5 139.5,929.5C 139.5,795.167 139.5,660.833 139.5,526.5 Z"/></g>
<g><path style="opacity:1" fill="#0077d3" d="M 999.5,526.5 C 999.5,660.833 999.5,795.167 999.5,929.5C 865.167,929.5 730.833,929.5 596.5,929.5C 596.5,795.167 596.5,660.833 596.5,526.5C 730.833,526.5 865.167,526.5 999.5,526.5 Z"/></g>
</svg>
